# xmcd CD database file
#
# Track frame offsets:
#	150
#	12932
#	25860
#	43547
#	61367
#	77687
#	95492
#	116735
#	133445
#	163300
#	180772
#	200050
#	216420
#	231175
#	248982
#
# Disc length: 3575 seconds
#
# Revision: 1
# Processed by: cddbd v1.5.2PL0 Copyright (c) Steve Scherf et al.
# Submitted via: CDex 1.79
#
DISCID=d50df50f
DTITLE=The Ben Markus Band - Rabble Withou A Cause
DYEAR=1997
DGENRE=Blues
TTITLE0=You Lose
TTITLE1=Heart Of Shame
TTITLE2=Life Is Cruel
TTITLE3=So Far Away
TTITLE4=Over You
TTITLE5=All I Know
TTITLE6=Lost To You
TTITLE7=You'll Never Know
TTITLE8=Promise To Show
TTITLE9=Is It Right
TTITLE10=Wearing Thin
TTITLE11=Our Love (Ain't Made..)
TTITLE12=Cary Grant Eyes
TTITLE13=Angelene
TTITLE14=told Before
EXTD=YEAR: 1997
EXTT0=
EXTT1=
EXTT2=
EXTT3=
EXTT4=
EXTT5=
EXTT6=
EXTT7=
EXTT8=
EXTT9=
EXTT10=
EXTT11=
EXTT12=
EXTT13=
EXTT14=
PLAYORDER=
